<?xml version="1.0" encoding="utf-8"?>
<!-- Generator: Adobe Illustrator 24.2.3, SVG Export Plug-In . SVG Version: 6.00 Build 0)  -->
<svg version="1.1" id="圖層_1" xmlns="http://www.w3.org/2000/svg" xmlns:xlink="http://www.w3.org/1999/xlink" x="0px" y="0px"
	 viewBox="0 0 500 500" style="enable-background:new 0 0 500 500;" xml:space="preserve">
<style type="text/css">
	.st0{fill:#FFFFFF;}
</style>
<path class="st0" d="M340,30H160C88.3,30,30,88.3,30,160v180c0,71.7,58.3,130,130,130h180c71.7,0,130-58.3,130-130V160
	C470,88.3,411.7,30,340,30z M250,360c-60.7,0-110-49.3-110-110s49.3-110,110-110s110,49.3,110,110S310.7,360,250,360z M370,150
	c-11,0-20-9-20-20s9-20,20-20s20,9,20,20S381,150,370,150z"/>
<path class="st0" d="M340,250c0,49.6-40.4,90-90,90s-90-40.4-90-90s40.4-90,90-90S340,200.4,340,250z"/>
</svg>
