<?xml version="1.0" encoding="utf-8"?>
<!-- Generator: Adobe Illustrator 24.2.3, SVG Export Plug-In . SVG Version: 6.00 Build 0)  -->
<svg version="1.1" id="圖層_1" xmlns="http://www.w3.org/2000/svg" xmlns:xlink="http://www.w3.org/1999/xlink" x="0px" y="0px"
	 viewBox="0 0 500 500" style="enable-background:new 0 0 500 500;" xml:space="preserve">
<style type="text/css">
	.st0{fill:#FFFFFF;}
</style>
<path class="st0" d="M250,21.3C115,21.3,5.1,108.8,5.1,216.4c0,96.5,87.2,177.1,204.9,192.5c8,1.6,18.8,5.2,21.5,11.9
	c2.4,6,1.6,15.7,0.8,21.7c0,0-2.9,17-3.4,20.6c-1.1,6-2.4,22.9,21.2,12.9c26.1-10.8,141-81.5,192.3-139.6
	c35.6-38.2,52.6-76.9,52.6-120C494.8,108.8,385,21.3,250,21.3z M135.7,282.5h-49c-9,0-16.3-7.3-16.3-16.3v-97.9
	c0-9,7.3-16.3,16.3-16.3s16.3,7.3,16.3,16.3v81.6h32.6c9,0,16.3,7.3,16.3,16.3S144.7,282.5,135.7,282.5z M201,266.2
	c0,9-7.3,16.3-16.3,16.3c-9,0-16.3-7.3-16.3-16.3v-97.9c0-9,7.3-16.3,16.3-16.3c9,0,16.3,7.3,16.3,16.3V266.2z M315.3,266.2
	c0,15.8-20.4,22.4-29.5,9.5L250,219.2v47c0,9-7.3,16.3-16.3,16.3c-9,0-16.3-7.3-16.3-16.3v-97.9c0-15.8,20.4-22.4,29.5-9.5
	l35.8,58.4v-49c0-9,7.3-16.3,16.3-16.3s16.3,7.3,16.3,16.3V266.2z M396.9,200.9c9,0,16.3,7.3,16.3,16.3c0,9-7.3,16.3-16.3,16.3
	h-32.6v16.3h32.6c9,0,16.3,7.3,16.3,16.3s-7.3,16.3-16.3,16.3h-49c-9,0-16.3-7.3-16.3-16.3v-97.9c0-9,7.3-16.3,16.3-16.3h49
	c9,0,16.3,7.3,16.3,16.3c0,9-7.3,16.3-16.3,16.3h-32.6v16.3H396.9z"/>
</svg>
