<svg viewBox="0 0 396.57 129.27" xmlns="http://www.w3.org/2000/svg"><g fill="#fff"><path d="m128.16 102.9q.71-7.37.94-11.58.33-5.76.65-15.79t.32-14.16c0-1 0-2.36 0-4.15q4.46.11 7.06.1c2.44 0 5.27 0 8.51-.15s6-.15 8.33-.15a53.5 53.5 0 0 1 5.95.23 15 15 0 0 1 4.1 1.08 8.59 8.59 0 0 1 5 5.12 12.59 12.59 0 0 1 .83 4.58 13.68 13.68 0 0 1 -.48 3.65 10.89 10.89 0 0 1 -1.38 3.09 9.57 9.57 0 0 1 -2 2.26 11 11 0 0 1 -2.15 1.41 19 19 0 0 1 -2.83 1 16.64 16.64 0 0 1 2.84.69 9.48 9.48 0 0 1 2.29 1.24 9.14 9.14 0 0 1 2.2 2.19 9.77 9.77 0 0 1 1.45 3 12.54 12.54 0 0 1 .49 3.5 13.56 13.56 0 0 1 -.84 4.79 11.45 11.45 0 0 1 -2.34 3.84 10.66 10.66 0 0 1 -3.32 2.35 16.43 16.43 0 0 1 -4.18 1.34c-1.16.17-3.27.31-6.34.4s-6.32.13-9.75.13h-8.81zm14.14-9.17h6.43a17.08 17.08 0 0 0 3.76-.3 6.1 6.1 0 0 0 2.24-1 4.14 4.14 0 0 0 1.27-1.61 5.74 5.74 0 0 0 .46-2.31 4.86 4.86 0 0 0 -.37-1.94 3.64 3.64 0 0 0 -1.11-1.41 4.82 4.82 0 0 0 -1.8-.82 16.68 16.68 0 0 0 -3.35-.25h-7.06zm.77-18.73h4.76a32.39 32.39 0 0 0 3.33-.11 10.54 10.54 0 0 0 1.93-.42 3.9 3.9 0 0 0 1.63-1 4 4 0 0 0 1-1.57 5.55 5.55 0 0 0 .28-1.74 4.13 4.13 0 0 0 -.59-2.21 3.5 3.5 0 0 0 -1.89-1.44 12.63 12.63 0 0 0 -4-.46h-6z"/><path d="m179.4 78.47c.42-2.21.69-3.73.8-4.57s.29-2.14.53-3.93a79.76 79.76 0 0 1 16.57-2.11 27.75 27.75 0 0 1 7.23.89 10.54 10.54 0 0 1 5.12 2.86 8 8 0 0 1 1.84 5.66c0 1.25-.16 4.06-.5 8.43s-.59 10.11-.77 17.2c-2.18 0-4.36-.07-6.52-.07s-4.33 0-6.7.07q.45-3.68 1-15.19c-.84.4-1.51.69-2 .87s-1.31.44-2.52.8-2.14.66-2.82.9a6.75 6.75 0 0 0 -1.77.94 3.82 3.82 0 0 0 -1.07 1.17 2.84 2.84 0 0 0 -.31 1.34 2.5 2.5 0 0 0 .9 1.94 4.23 4.23 0 0 0 2.88.81 10.31 10.31 0 0 0 1.51-.12 14.3 14.3 0 0 0 2.2-.59q-1 2.58-2.31 7.53a34.12 34.12 0 0 1 -5.45.47 18 18 0 0 1 -6.91-1.15 8.62 8.62 0 0 1 -4.25-3.74 10.21 10.21 0 0 1 -1.49-5.15 8.86 8.86 0 0 1 .55-3.08 10.2 10.2 0 0 1 1.73-2.94 11.7 11.7 0 0 1 2.74-2.46 19.38 19.38 0 0 1 4.3-1.93 56.09 56.09 0 0 1 6.9-1.7c1.17-.23 2.23-.47 3.2-.72a14.38 14.38 0 0 0 2.07-.67 3.35 3.35 0 0 0 1-.67 2.61 2.61 0 0 0 .55-.8 2.43 2.43 0 0 0 .17-.89 2.2 2.2 0 0 0 -1.07-2 5.89 5.89 0 0 0 -3.15-.69q-5.75 0-14.21 3.25"/><path d="m217.41 102.9q1-7.59 1.48-16.78t.61-17.39c2.68 0 5 .07 6.94.07 2.26 0 4.42 0 6.5-.07l-.33 4.55a26 26 0 0 1 1.9-2 12 12 0 0 1 2-1.41 13 13 0 0 1 2.49-1.07 19.4 19.4 0 0 1 2.93-.69 22.28 22.28 0 0 1 3.33-.25 21.56 21.56 0 0 1 4.7.52 12.66 12.66 0 0 1 3.83 1.47 9 9 0 0 1 2.58 2.38 7.8 7.8 0 0 1 1.37 3.06 17.14 17.14 0 0 1 .34 3.38c0 .85-.09 2.68-.28 5.49l-.57 12.11q-.17 3.58-.17 6.63c-2.25 0-4.36-.07-6.32-.07-2.65 0-5.07 0-7.25.07q.3-3 .64-9.05c.22-4 .33-6.82.33-8.45q0-3.78-1.45-5.27a4.92 4.92 0 0 0 -3.67-1.49 6.05 6.05 0 0 0 -3.67 1.27 8 8 0 0 0 -2.66 3.7 30 30 0 0 0 -1.33 8c-.25 3.7-.43 7.47-.52 11.31-2.23 0-4.4-.07-6.52-.07s-4.65 0-7.26.07"/><path d="m265.8 102.9q.65-6.42 1.54-24.56h-4.08c.07-.69.16-2.17.28-4.42s.2-3.88.22-4.89h4.75q0-1.34 0-2.31a27.35 27.35 0 0 1 .32-4.81 7.46 7.46 0 0 1 1.17-3 8 8 0 0 1 2.41-2.17 9.65 9.65 0 0 1 3.51-1.29 24.48 24.48 0 0 1 4.07-.33 35.24 35.24 0 0 1 9.6 1.33c.07 3.55.21 6.5.44 8.84a17.79 17.79 0 0 0 -6-1.21 4.36 4.36 0 0 0 -2.83.84 3.84 3.84 0 0 0 -1 3.08v1h7.69c-.18 2.57-.35 5.67-.53 9.31h-7l-1.11 24.56c-2.65 0-4.93-.07-6.82-.07s-4.15 0-6.7.07"/><path d="m328.92 102.9c-2.54 0-4.66-.07-6.36-.07-2.1 0-4.21 0-6.33.07v-4.58a20 20 0 0 1 -2.05 2.25 10 10 0 0 1 -1.82 1.33 12.48 12.48 0 0 1 -2.21 1 16 16 0 0 1 -2.81.66 23 23 0 0 1 -3.23.23 19.74 19.74 0 0 1 -5-.62 10.78 10.78 0 0 1 -4.15-2.09 7.54 7.54 0 0 1 -2.44-3.35 13.1 13.1 0 0 1 -.65-4.35c0-.4 0-1 .1-1.87l.53-7.6c.16-2.79.3-5.88.44-9.27q.13-3.11.13-5.89 4.15.08 7.06.07c2 0 4.13 0 6.5-.07l-1 12.75c-.16 1.94-.24 3.27-.25 4s0 1.18 0 1.42c0 2.34.47 3.93 1.42 4.75a5 5 0 0 0 3.41 1.24 6 6 0 0 0 1.61-.23 6.78 6.78 0 0 0 1.54-.67 5.32 5.32 0 0 0 1.18-1 6.3 6.3 0 0 0 1-1.54 10 10 0 0 0 .81-2.37 34.11 34.11 0 0 0 .57-4.49c.09-1.31.21-3.59.36-6.82l.26-7q4.32.08 7.09.07 3.1 0 6.25-.07-.77 8.51-1.2 16.17t-.67 18"/><path d="m336.35 102.9q.93-10.55 1.63-24.56t.7-21.12q3.88.08 7.27.07t6.49-.07q-.72 5.22-1.06 11.48c2-.34 3.59-.56 4.68-.67s2.18-.17 3.25-.17a21.52 21.52 0 0 1 8.81 1.63 13 13 0 0 1 6 5.47 18 18 0 0 1 2.29 9.4 24 24 0 0 1 -2.17 10.22 15.55 15.55 0 0 1 -5.83 6.93 15.76 15.76 0 0 1 -8.5 2.26 15.37 15.37 0 0 1 -3.44-.37 11.33 11.33 0 0 1 -3-1.09 11.5 11.5 0 0 1 -2.24-1.52 21.3 21.3 0 0 1 -2.08-2.17l-.15 4.28c-2.39 0-4.39-.07-6-.07-1.31 0-3.54 0-6.66.07m14.09-24.8c-.16 3.71-.24 6-.24 6.8a17.88 17.88 0 0 0 .55 5 5.44 5.44 0 0 0 2.11 3 5.94 5.94 0 0 0 3.5 1.1 5.82 5.82 0 0 0 3.51-1.1 6.72 6.72 0 0 0 2.29-3.23 12.67 12.67 0 0 0 .79-4.47 8.18 8.18 0 0 0 -1.89-5.64 7 7 0 0 0 -5.46-2.12 21.74 21.74 0 0 0 -5.16.73"/><path d="m382.88 102.88a1.56 1.56 0 0 1 -1.56-1.73c.21-2 .38-3.61.5-5q.24-2.64.45-6.76t.38-9.1q.15-4.4.24-10a1.56 1.56 0 0 1 1.58-1.52h5.41s3 0 5.11 0a1.55 1.55 0 0 1 1.57 1.68c-.3 3.52-.53 6.65-.67 9.4q-.25 4.78-.32 10.14c-.08 5.11-.12 8.89-.13 11.36a1.56 1.56 0 0 1 -1.58 1.54c-2 0-3.75 0-5.28 0s-3.42 0-5.7 0"/><path d="m395.88 59.27a32 32 0 0 1 -2.24 4 8.6 8.6 0 0 1 -3.64 3.28 3.4 3.4 0 0 1 -3.39-.3 4.42 4.42 0 0 1 -1.55-1.9 4.36 4.36 0 0 1 -.26-2.62 7.56 7.56 0 0 1 1.26-2.87 7.74 7.74 0 0 1 2.21-2.21 3.48 3.48 0 0 1 2.33-.65 6 6 0 0 1 2.44 1.08c.35.25 1.3 1 2.83 2.19"/><path d="m107.24 85.69c-.93-.26-1.83-.5-2.72-.73-.89-.23-1.75-.44-2.6-.64-2.54-.73-6-2-6.31-3.65 0 0 0 0 0-.06 1.83-8.6-1.21-19.74-2.85-25.17a23.11 23.11 0 0 1 -1-10.35c1.07-2 4.83-4.32 6.29-4.76 2-.62 1.15-1.78 1.15-1.78 2-1 .63-2.62-.39-3.2s-2.33-.18-3.56.19-4.07-1.09-8.26-2.41c-1.31-2.38-3.22-6.74-2.21-10.48 1.48-5.47.88-13.06-2.53-16.86s-8.03-6.79-8.88-5.48 5.52 4.24 7.7 7.48a14.44 14.44 0 0 1 2.36 6.47c-1.75-3-7.3-4.4-9.14-5.16s-3.75-.74-3.91.36 4.12 1.39 8.41 3.54c3.11 1.52 4.68 5.18 4.69 5.2-.08.93-.21 1.83-.36 2.67a35.65 35.65 0 0 0 -.46 3.58s-3.64-3.25-5.08-1.8 3.71 2.47 5 4.29a16.86 16.86 0 0 0 1.26 5.75 12.54 12.54 0 0 0 -4.54.81c-2-1.54-6-5.13-6.52-9.34-.67-5.63-4.07-12.44-8.66-14.69s-9.88-3.4-10.12-1.87 6.7 1.87 9.93 4.05a14.44 14.44 0 0 1 4.62 5.12c-2.74-2.11-8.42-1.35-10.42-1.36s-3.74.71-3.48 1.79 4.34-.25 9.1.09a11.34 11.34 0 0 1 6.25 3.07c.28.9.5 1.78.67 2.61a34.6 34.6 0 0 0 .91 3.49s-4.59-1.66-5.39.23 4.37.91 6.29 2.09a16.82 16.82 0 0 0 3.64 5.22 9.57 9.57 0 0 0 .75.64 3.72 3.72 0 0 0 -.34.26c-1.11 1-2.55 2.67-5.55 1.47s-9.62-.12-9.62-.12c.72.83 5.19 5.28 7.73 4.75a7.56 7.56 0 0 1 4.81.78c1.28.86 1.76 4.76 3 8.5 1 4.17 2 9.46 1.26 11.84-1.41 4.22-7.63 11.61-18.42 11s-16.65-2.51-24.86 0a10.47 10.47 0 0 0 -1 .38c-1.36-1.18-4.36-2.83-8.58.35-3.88 2.92-4.06 5.1-4.61 5.15s1.74.94 3.74.51c1.6-.34 2.74.56 4 1.21-1.31 4.54-1.43 9.72-2.43 12.28-1.88 4.46-5.28 8.21-8.44 9.15s-6.57 12.66-12.08 17-6.69 6.1-4.22 8.68 4.1 1.41 4.22-.59 4.34-6.68 5.74-8.09 4-7.86 8-9.85 14.89-3.64 21.58-7.74 7-5 7-5 19 2.58 32-2.93c0 0 6.21 4.69 12.31 3.4s7.86-4.11 10.56-4a8.61 8.61 0 0 1 -6 6c-4.8 1.17-5.39 1.52-6.8 3.17s-6.29 4.69-9.12 5.16-3.66 6.21-3.07 7.74 3.28.23 4.45-1.18 6.34-6.56 12.43-8.79 10.56-5.28 11.85-7 13-8.91.82-12.31"/></g><path d="m0 0h396.57v129.27h-396.57z" fill="none"/></svg>