<?xml version="1.0" encoding="utf-8"?>
<!-- Generator: Adobe Illustrator 24.2.3, SVG Export Plug-In . SVG Version: 6.00 Build 0)  -->
<svg version="1.1" id="Capa_1" xmlns="http://www.w3.org/2000/svg" xmlns:xlink="http://www.w3.org/1999/xlink" x="0px" y="0px"
	 viewBox="0 0 56.5 56.5" style="enable-background:new 0 0 56.5 56.5;" xml:space="preserve">
<style type="text/css">
	.st0{fill:#FFFFFF;}
</style>
<g>
	<g>
		<path class="st0" d="M17.4,26.2c-0.9,0-1.6,0.2-1.6,0.2l-0.2,1.2c0,0,0.6-0.2,1.4-0.2c0.5,0,0.8,0.1,0.8,0.4
			c0,0.2-0.1,0.3-0.1,0.3s-0.4,0-0.6,0c-1.1,0-2.2,0.5-2.2,1.9c0,1.2,0.7,1.4,1.2,1.4c0.9,0,1.3-0.6,1.3-0.6l-0.1,0.5h1.2l0.5-3.5
			C19.2,26.3,17.8,26.2,17.4,26.2z M16.8,30.3c-0.4,0-0.5-0.3-0.5-0.5c0-0.3,0.2-0.7,1.2-0.7c0.2,0,0.2,0,0.2,0
			C17.7,29.3,17.5,30.3,16.8,30.3z"/>
	</g>
</g>
<g>
	<g>
		<path class="st0" d="M21.5,27.4c0.2,0,0.9,0.1,0.9,0.1l0.2-1.2c0,0-0.4-0.1-1.2-0.1c-0.9,0-1.9,0.4-1.9,1.6c0,1.5,1.6,1.3,1.6,1.9
			c0,0.4-0.4,0.4-0.8,0.4c-0.6,0-1.2-0.2-1.2-0.2l-0.2,1.2c0,0,0.3,0.2,1.4,0.2c0.2,0,1.9,0.1,1.9-1.6c0-1.6-1.5-1.2-1.5-1.9
			C20.7,27.6,21,27.4,21.5,27.4z"/>
	</g>
</g>
<g>
	<g>
		<path class="st0" d="M24.1,27.6h0.7l0.2-1.2h-0.7l0.2-0.7h-1.2c0,0-0.7,4.2-0.7,4.7c0,0.7,0.4,1.1,1,1.1c0.5,0,0.8-0.2,1-0.2
			l0.2-1.1c-0.1,0-0.2,0-0.3,0c-0.4,0-0.5-0.2-0.5-0.4L24.1,27.6z"/>
	</g>
</g>
<g>
	<g>
		<path class="st0" d="M29.4,20.6h-2.3c-0.3,0.4-0.6,0.8-0.8,1.3h4C30.1,21.5,29.8,21,29.4,20.6z"/>
	</g>
</g>
<g>
	<g>
		<path class="st0" d="M47.1,35C47.1,35,47.1,35,47.1,35C47.1,34.9,47.1,34.9,47.1,35L47.1,35v-0.2v-0.1c0,0,0,0-0.1,0H47h-0.2v0.4
			h0.1V35l0,0H47C47,35,47,35,47.1,35L47.1,35L47.1,35L47.1,35z M47,34.9L47,34.9l-0.1-0.2H47h0.1l0,0l0,0
			C47.1,34.8,47.1,34.8,47,34.9C47.1,34.9,47,34.9,47,34.9z"/>
	</g>
</g>
<g>
	<g>
		<path class="st0" d="M31,23.2h-5.4c-0.3,0.7-0.6,1.2-0.7,1.3h6.6C31.4,24,31.3,23.6,31,23.2z"/>
	</g>
</g>
<g>
	<g>
		<polygon class="st0" points="13.5,25.2 12.2,28.9 12.2,25.2 10.3,25.2 9.3,31.3 10.5,31.3 11.3,26.7 11.4,31.3 12.2,31.3 
			13.9,26.7 13.1,31.3 14.5,31.3 15.5,25.2 		"/>
	</g>
</g>
<g>
	<g>
		<path class="st0" d="M38,26.2c-0.9,0-1.6,0.2-1.6,0.2l-0.2,1.2c0,0,0.6-0.2,1.4-0.2c0.5,0,0.8,0.1,0.8,0.4c0,0.2-0.1,0.3-0.1,0.3
			s-0.4,0-0.6,0c-1.1,0-2.2,0.5-2.2,1.9c0,1.2,0.7,1.4,1.2,1.4c0.9,0,1.3-0.6,1.3-0.6l-0.1,0.5h1.2l0.5-3.5
			C39.7,26.3,38.4,26.2,38,26.2z M37.3,30.3c-0.4,0-0.5-0.3-0.5-0.5c0-0.3,0.2-0.7,1.2-0.7c0.2,0,0.2,0,0.2,0
			C38.2,29.3,38.1,30.3,37.3,30.3z"/>
	</g>
</g>
<g>
	<g>
		<path class="st0" d="M47.1,30.8c0-0.1-0.1-0.1-0.2-0.2c0-0.1-0.1-0.1-0.2-0.1c-0.1,0-0.2,0-0.2,0.1c-0.1,0-0.1,0.1-0.2,0.2
			c0,0.1-0.1,0.2-0.1,0.2s0,0.2,0.1,0.2c0,0.1,0.1,0.1,0.2,0.2c0.1,0,0.2,0.1,0.2,0.1c0.1,0,0.2,0,0.2-0.1c0.1,0,0.1-0.1,0.2-0.2
			c0-0.1,0.1-0.2,0.1-0.2C47.2,30.8,47.2,30.8,47.1,30.8z M47.1,31.1C47.1,31.2,47,31.2,47.1,31.1c-0.2,0.1-0.2,0.2-0.2,0.2
			c-0.1,0-0.1,0-0.2-0.1c-0.1,0-0.1-0.1-0.1-0.1s-0.1-0.1-0.1-0.2c0-0.1,0-0.1,0.1-0.2c0-0.1,0.1-0.1,0.1-0.1s0.1,0,0.2,0
			s0.1,0,0.2,0s0.1,0.1,0.1,0.1s0.1,0.1,0.1,0.2C47.1,31,47.1,31,47.1,31.1z"/>
	</g>
</g>
<g>
	<g>
		<path class="st0" d="M47,31L47,31L47,31L47,31v-0.2v-0.1c0,0,0,0-0.1,0s-0.1,0-0.1,0h-0.2v0.4h0.1V31l0,0h0.1
			C46.8,31,46.8,31,47,31L47,31L47,31L47,31z M46.8,30.9L46.8,30.9l-0.1-0.2h0.1h0.1l0,0l0,0C46.9,30.8,46.9,30.8,46.8,30.9
			C46.9,30.9,46.8,30.9,46.8,30.9z"/>
	</g>
</g>
<g>
	<g>
		<path class="st0" d="M42.3,26.3c-0.6,0-1,0.7-1,0.7l0.1-0.7h-1.2l-0.8,4.9h1.3c0.4-2.1,0.4-3.8,1.3-3.5c0.2-0.8,0.3-1.2,0.5-1.5
			C42.5,26.3,42.4,26.3,42.3,26.3z"/>
	</g>
</g>
<g>
	<g>
		<path class="st0" d="M45.6,25.2L45.3,27c0,0-0.5-0.7-1.2-0.7c-1.2,0-2.1,1.4-2.1,3c0,1.1,0.5,2.1,1.6,2.1c0.7,0,1.2-0.5,1.2-0.5
			l-0.1,0.5h1.2l1-6L45.6,25.2z M43.9,30.1c-0.5,0-0.7-0.4-0.7-1c0-1,0.4-1.6,1-1.6c0.5,0,0.7,0.3,0.7,1.1
			C45,29.2,44.7,30.1,43.9,30.1z"/>
	</g>
</g>
<g>
	<g>
		<path class="st0" d="M50.3,13.1h-44c-0.7,0-1.2,0.6-1.2,1.2v27.7c0,0.7,0.5,1.2,1.2,1.2h44c0.7,0,1.2-0.6,1.2-1.2V14.4
			C51.5,13.7,50.9,13.1,50.3,13.1z M47.3,35c0,0.1-0.1,0.1-0.2,0.2S47,35.3,47,35.3c-0.1,0-0.2,0-0.2-0.1c-0.1,0-0.1-0.1-0.2-0.2
			c0-0.1-0.1-0.2-0.1-0.2s0-0.2,0.1-0.2c0-0.1,0.1-0.1,0.2-0.2c0.1,0,0.2-0.1,0.2-0.1c0.1,0,0.2,0,0.2,0.1c0.1,0,0.1,0.1,0.2,0.2
			c0,0.1,0.1,0.2,0.1,0.2S47.4,35,47.3,35z M48.2,28.2c0,6.6-5.3,11.9-11.9,11.9c-3,0-5.9-1.2-8-3c-2.1,1.9-4.9,3-8,3
			c-6.6,0-11.9-5.3-11.9-11.9s5.3-11.9,11.9-11.9h0.1c3,0,5.8,1.2,8,3c2.1-1.9,4.9-3,8-3C42.9,16.3,48.2,21.6,48.2,28.2L48.2,28.2z"
			/>
	</g>
</g>
<g>
	<g>
		<path class="st0" d="M27.1,35.8c0.4,0.5,0.7,0.9,1.2,1.3l0,0l0,0l0,0c0.4-0.4,0.8-0.8,1.2-1.3H27.1z"/>
	</g>
</g>
<g>
	<g>
		<path class="st0" d="M28.6,29.3c0,0,0.2-0.8,0.2-1.2c0-0.8-0.4-1.9-1.8-1.9c-1.3,0-2.2,1.4-2.2,3c0,1.8,1.2,2.2,2.2,2.2
			c0.9,0,1.3-0.2,1.3-0.2l0.2-1.2c0,0-0.7,0.3-1.3,0.3c-1.4,0-1.2-1-1.2-1S28.6,29.2,28.6,29.3z M27,27.4c0.7,0,0.6,0.8,0.6,0.9
			h-1.4C26.2,28.1,26.3,27.4,27,27.4z"/>
	</g>
</g>
<g>
	<g>
		<path class="st0" d="M34.6,26.4c0.7,0,1.2,0.3,1.2,0.3l0.2-1.3c0,0-0.7-0.3-1.4-0.3c-1.5,0-2.9,1.2-2.9,3.6c0,1.6,0.7,2.6,2.3,2.6
			c0.4,0,1.1-0.2,1.1-0.2l0.2-1.4c0,0-0.7,0.3-1.1,0.3c-0.9,0-1.2-0.7-1.2-1.4C33,27.2,33.7,26.4,34.6,26.4z"/>
	</g>
</g>
<g>
	<g>
		<path class="st0" d="M25.4,33.3c0.2,0.4,0.4,0.9,0.7,1.3h4.2c0.2-0.4,0.5-0.8,0.7-1.3H25.4z"/>
	</g>
</g>
<g>
	<g>
		<path class="st0" d="M31.7,26.3c-0.6,0-1,0.7-1,0.7l0.1-0.7h-1.2l-0.8,4.9h1.3c0.3-2.1,0.4-3.8,1.3-3.5c0.2-0.8,0.3-1.2,0.5-1.5
			C31.9,26.3,31.8,26.3,31.7,26.3z"/>
	</g>
</g>
</svg>
